<svg xmlns="http://www.w3.org/2000/svg" xmlns:xlink="http://www.w3.org/1999/xlink" version="1.1" x="0px" y="0px" viewBox="0 0 2000 2500" enable-background="new 0 0 2000 2000" xml:space="preserve"><metadata><?xpacket begin="&#65279;" id="W5M0MpCehiHzreSzNTczkc9d"?><x:xmpmeta xmlns:x="adobe:ns:meta/" x:xmptk="Adobe XMP Core 5.3-c011 66.145661, 2012/02/06-14:56:27        "/><?xpacket end="w"?></metadata><path fill-rule="evenodd" clip-rule="evenodd" d="M1346.416,844.805c-256.92-3.814-833.461-85.631-1035.673,25.464  c-235.119,129.179-142.421,524.553,385.539,327.868c181.68-67.681,367.081-187.473,565.906-106.325l54.916,24.08  c-32.359-45.802-27.05-51.235-81.229-78.527c-259.116-130.516-618.082,160.7-844.137,90.39  c-71.996-22.394-52.967-100.444-11.987-128.182c177.453-120.127,931.612-8.842,1261.042-118.786  c86.5-28.868,141.387-58.554,170.376-132.813C1643.295,843.433,1551.904,847.856,1346.416,844.805z"/><text x="0" y="2015" fill="#000000" font-size="5px" font-weight="bold" font-family="'Helvetica Neue', Helvetica, Arial-Unicode, Arial, Sans-serif">Created by Adi Waluyo Noto Carito</text><text x="0" y="2020" fill="#000000" font-size="5px" font-weight="bold" font-family="'Helvetica Neue', Helvetica, Arial-Unicode, Arial, Sans-serif">from the Noun Project</text></svg>