<svg xmlns="http://www.w3.org/2000/svg" xmlns:xlink="http://www.w3.org/1999/xlink" version="1.1" x="0px" y="0px" viewBox="0 0 2000 2500" enable-background="new 0 0 2000 2000" xml:space="preserve"><metadata><?xpacket begin="&#65279;" id="W5M0MpCehiHzreSzNTczkc9d"?><x:xmpmeta xmlns:x="adobe:ns:meta/" x:xmptk="Adobe XMP Core 5.3-c011 66.145661, 2012/02/06-14:56:27        "/><?xpacket end="w"?></metadata><path fill-rule="evenodd" clip-rule="evenodd" d="M1715.188,729.187c-94.363-76.542-172.88-77.565-284.243-63.666  c128.962,37.677,323.764,93.629,302.921,274.029c-26.078,225.793-367.483,215.35-533.242,157.771  c111.358-60.957,193.761-97.569,364.571-100.555v-0.005c-52.929-27.559-47.425-31.584-107.539-35.4  c-93.567-5.942-222.301,41.244-354.326,95.411C875.353,949.108,632.194,764.303,365.138,857.509  c-370.229,129.212-207.603,781.721,684.252,321.955c149.517,64.09,299.14,105.692,495.865,54.344  C1803.544,1166.396,1920.858,896.023,1715.188,729.187z M743.992,1190.888c-83.484,19.482-427.349,69.532-420.217-94.088  c7.137-163.752,336.614-83.517,425.137-50.002c65.14,24.663,125.795,52.717,184.674,80.117  C865.998,1153.983,801.268,1177.523,743.992,1190.888z"/><text x="0" y="2015" fill="#000000" font-size="5px" font-weight="bold" font-family="'Helvetica Neue', Helvetica, Arial-Unicode, Arial, Sans-serif">Created by Adi Waluyo Noto Carito</text><text x="0" y="2020" fill="#000000" font-size="5px" font-weight="bold" font-family="'Helvetica Neue', Helvetica, Arial-Unicode, Arial, Sans-serif">from the Noun Project</text></svg>